<svg width="1545" height="172" viewBox="0 0 1545 172" fill="none" xmlns="http://www.w3.org/2000/svg">
<path d="M0.460938 168V145.44H119.501C128.621 145.44 135.341 138.72 135.341 129.6C135.341 120.72 128.621 114 119.501 114H39.1009C16.7809 114 2.86094 102.24 2.86094 87.6C2.86094 72.24 17.9809 64.56 31.6609 60.96C29.2609 65.04 28.3009 69.6 28.3009 73.44C28.3009 83.28 34.3009 89.76 46.0609 89.76H123.581C146.621 89.76 163.181 106.32 163.181 128.88C163.181 151.44 146.621 168 123.581 168H0.460938ZM31.6609 60.96C40.5409 46.08 53.0209 38.4 73.4209 38.4H153.581V60.96H31.6609Z" fill="white"/>
<path d="M290.598 38.4C329.718 38.4 356.598 65.28 356.598 101.04V105.36C356.598 141.12 329.718 168 290.598 168H246.918C208.038 168 180.918 141.12 180.918 105.36V101.04C180.918 65.28 208.038 38.4 246.918 38.4H290.598ZM209.718 105.6C209.718 128.64 225.078 144 248.358 144H289.158C312.678 144 327.798 128.64 327.798 105.6V100.8C327.798 77.76 312.678 62.4 289.158 62.4H248.358C225.078 62.4 209.718 77.76 209.718 100.8V105.6Z" fill="white"/>
<path d="M448.762 171.84C421.642 171.84 406.282 158.64 397.882 133.68L365.482 38.4H395.002L424.282 125.28C430.042 142.08 441.322 147.6 459.802 147.6H485.722C481.642 160.08 475.402 171.84 448.762 171.84ZM485.722 147.6L522.442 38.4H551.962L523.642 120.48C516.442 141.6 504.682 147.6 485.722 147.6Z" fill="white"/>
<path d="M602.103 168C578.343 168 561.783 151.44 561.783 128.64C561.783 105.84 578.343 89.28 602.103 89.28H650.103C672.903 89.28 687.783 96.96 702.423 111.36H607.623C597.543 111.36 590.343 118.08 590.343 127.68C590.343 137.28 597.543 144 607.623 144H702.423V111.36C719.943 124.08 731.223 141.6 731.223 162.96V168H602.103ZM702.423 85.68C702.423 72.72 693.543 63.84 680.583 63.84H570.423V38.4H685.863C713.463 38.4 731.223 55.92 731.223 83.28V111.36H702.423V85.68Z" fill="white"/>
<path d="M827.747 171.84C800.627 171.84 785.267 158.64 776.867 133.68L744.467 38.4H773.987L803.267 125.28C809.027 142.08 820.307 147.6 838.787 147.6H864.707C860.627 160.08 854.387 171.84 827.747 171.84ZM864.707 147.6L901.427 38.4H930.947L902.627 120.48C895.427 141.6 883.667 147.6 864.707 147.6Z" fill="#84F29B"/>
<path d="M981.088 168C957.328 168 940.768 151.44 940.768 128.64C940.768 105.84 957.328 89.28 981.088 89.28H1029.09C1051.89 89.28 1066.77 96.96 1081.41 111.36H986.608C976.528 111.36 969.328 118.08 969.328 127.68C969.328 137.28 976.528 144 986.608 144H1081.41V111.36C1098.93 124.08 1110.21 141.6 1110.21 162.96V168H981.088ZM1081.41 85.68C1081.41 72.72 1072.53 63.84 1059.57 63.84H949.408V38.4H1064.85C1092.45 38.4 1110.21 55.92 1110.21 83.28V111.36H1081.41V85.68Z" fill="#84F29B"/>
<path d="M1164.41 104.64C1164.41 127.2 1180.01 142.56 1202.57 142.56H1271.69C1258.25 158.64 1240.49 168 1217.69 168H1196.57C1160.33 168 1135.61 143.04 1135.61 106.8V38.4H1164.41V104.64ZM1300.73 83.52C1300.73 108.48 1292.57 127.92 1271.69 142.56V38.4H1300.73V83.52Z" fill="#84F29B"/>
<path d="M1325.94 0H1354.98V168H1325.94V0Z" fill="#84F29B"/>
<path d="M1441.96 142.56C1421.08 127.68 1412.92 109.44 1412.92 84.48V62.16H1373.08V38.4H1412.92V0H1441.96V142.56ZM1441.96 142.56H1544.68V168H1495C1472.44 168 1455.16 158.64 1441.96 142.56ZM1442.2 62.16C1454.68 47.76 1469.56 38.4 1490.92 38.4H1543.72V62.16H1442.2Z" fill="#84F29B"/>
</svg>
