<svg width="541" height="74" viewBox="0 0 541 74" fill="none" xmlns="http://www.w3.org/2000/svg">
<path d="M0.200195 58.0001V50.4801H39.8802C42.9202 50.4801 45.1602 48.2401 45.1602 45.2001C45.1602 42.2401 42.9202 40.0001 39.8802 40.0001H13.0802C5.6402 40.0001 1.0002 36.0801 1.0002 31.2001C1.0002 26.0801 6.0402 23.5201 10.6002 22.3201C9.8002 23.6801 9.4802 25.2001 9.4802 26.4801C9.4802 29.7601 11.4802 31.9201 15.4002 31.9201H41.2402C48.9202 31.9201 54.4402 37.4401 54.4402 44.9601C54.4402 52.4801 48.9202 58.0001 41.2402 58.0001H0.200195ZM10.6002 22.3201C13.5602 17.3601 17.7202 14.8001 24.5202 14.8001H51.2402V22.3201H10.6002Z" fill="white"/>
<path d="M96.9127 14.8001C109.953 14.8001 118.913 23.7601 118.913 35.6801V37.1201C118.913 49.0401 109.953 58.0001 96.9127 58.0001H82.3527C69.3927 58.0001 60.3527 49.0401 60.3527 37.1201V35.6801C60.3527 23.7601 69.3927 14.8001 82.3527 14.8001H96.9127ZM69.9527 37.2001C69.9527 44.8801 75.0727 50.0001 82.8327 50.0001H96.4327C104.273 50.0001 109.313 44.8801 109.313 37.2001V35.6001C109.313 27.9201 104.273 22.8001 96.4327 22.8001H82.8327C75.0727 22.8001 69.9527 27.9201 69.9527 35.6001V37.2001Z" fill="white"/>
<path d="M149.634 59.2801C140.594 59.2801 135.474 54.8801 132.674 46.5601L121.874 14.8001H131.714L141.474 43.7601C143.394 49.3601 147.154 51.2001 153.314 51.2001H161.954C160.594 55.3601 158.514 59.2801 149.634 59.2801ZM161.954 51.2001L174.194 14.8001H184.034L174.594 42.1601C172.194 49.2001 168.274 51.2001 161.954 51.2001Z" fill="white"/>
<path d="M200.748 58.0001C192.828 58.0001 187.308 52.4801 187.308 44.8801C187.308 37.2801 192.828 31.7601 200.748 31.7601H216.748C224.348 31.7601 229.308 34.3201 234.188 39.1201H202.588C199.228 39.1201 196.828 41.3601 196.828 44.5601C196.828 47.7601 199.228 50.0001 202.588 50.0001H234.188V39.1201C240.028 43.3601 243.788 49.2001 243.788 56.3201V58.0001H200.748ZM234.188 30.5601C234.188 26.2401 231.228 23.2801 226.908 23.2801H190.188V14.8001H228.668C237.868 14.8001 243.788 20.6401 243.788 29.7601V39.1201H234.188V30.5601Z" fill="white"/>
<path d="M288.654 14.8001C301.214 14.8001 310.254 23.7601 310.254 35.6801V37.1201C310.254 49.0401 301.214 58.0001 288.654 58.0001H280.174C272.654 58.0001 266.734 55.2001 262.254 49.9201H287.854C295.534 49.9201 300.654 44.8801 300.654 37.2001V35.6001C300.654 27.9201 295.534 22.8801 287.854 22.8801H262.254V49.9201C255.294 44.9601 252.574 39.5201 252.574 31.2801V14.8001H288.654ZM262.254 49.9201V74.0001H252.574V49.9201H262.254Z" fill="#84F29B"/>
<path d="M326.616 23.2801V58.0001H316.936V42.9601C316.936 34.6401 319.656 28.1601 326.616 23.2801ZM326.616 23.2801C331.096 17.9201 337.096 14.8001 344.696 14.8001H361.176V23.2801H326.616Z" fill="#84F29B"/>
<path d="M367.035 58.0001V14.8001H376.715V58.0001H367.035ZM371.835 12.1601C368.475 12.1601 365.835 9.52006 365.835 6.32006C365.835 3.12006 368.475 0.560059 371.835 0.560059C375.195 0.560059 377.835 3.12006 377.835 6.32006C377.835 9.52006 375.195 12.1601 371.835 12.1601Z" fill="#84F29B"/>
<path d="M466.095 35.9201C466.095 28.4001 461.055 23.2801 453.455 23.2801H430.895C433.855 19.1201 439.375 14.8001 447.695 14.8001H455.375C467.455 14.8001 475.695 23.1201 475.695 35.2001V58.0001H466.095V35.9201ZM385.295 42.9601C385.295 34.6401 388.015 28.1601 394.975 23.2801V58.0001H385.295V42.9601ZM426.095 38.3201C426.095 30.6401 428.175 27.2001 430.895 23.2801C433.535 27.2001 435.615 30.7201 435.615 38.3201V58.0001H426.095V38.3201ZM394.975 23.2801C399.455 17.9201 405.455 14.8001 412.735 14.8001H415.135C422.895 14.8001 427.935 19.1201 430.895 23.2801H394.975Z" fill="#84F29B"/>
<path d="M483.009 35.7601C483.009 23.2801 492.289 14.8001 504.609 14.8001H519.009C531.649 14.8001 540.289 23.7601 540.289 35.6801V39.5201H483.009V35.7601ZM504.609 58.0001C493.169 58.0001 486.849 52.6401 486.849 47.5201C486.849 43.8401 488.929 41.2001 492.209 39.5201C492.209 45.3601 496.769 50.0801 505.329 50.0801H537.489V58.0001H504.609ZM492.289 39.2801C493.489 36.4001 497.249 33.2001 503.409 33.2001H530.689C529.889 26.8001 525.329 22.7201 518.289 22.7201H505.329C498.289 22.7201 492.289 26.8001 492.289 36.6401V39.2801Z" fill="#84F29B"/>
</svg>
