<svg width="517" height="517" viewBox="0 0 517 517" fill="none" xmlns="http://www.w3.org/2000/svg">
<circle cx="258.5" cy="258.5" r="258.5" fill="#191C19"/>
<rect width="517" height="517" fill="#191C19"/>
<path d="M87 395V347.478H337.926C357.151 347.478 371.316 333.322 371.316 314.111C371.316 295.406 357.151 281.25 337.926 281.25H168.45C121.401 281.25 92.059 256.478 92.059 225.639C92.059 193.283 123.931 177.105 152.767 169.522C147.708 178.117 145.685 187.722 145.685 195.811C145.685 216.539 158.332 230.189 183.121 230.189H346.527C395.093 230.189 430 265.072 430 312.594C430 360.117 395.093 395 346.527 395H87ZM152.767 169.522C171.485 138.178 197.792 122 240.794 122H409.764V169.522H152.767Z" fill="#84F29B"/>
</svg>
