<svg width="387" height="70" viewBox="0 0 387 70" fill="none" xmlns="http://www.w3.org/2000/svg">
<path d="M0 67.9644V56.1336H62.4266C67.2093 56.1336 70.7334 52.6095 70.7334 47.8268C70.7334 43.17 67.2093 39.6459 62.4266 39.6459H20.2635C8.55848 39.6459 1.2586 33.4788 1.2586 25.8013C1.2586 17.7463 9.18778 13.7187 16.3618 11.8308C15.1032 13.9705 14.5998 16.3618 14.5998 18.3756C14.5998 23.5358 17.7463 26.9341 23.9134 26.9341H64.5662C76.6488 26.9341 85.3331 35.6184 85.3331 47.4492C85.3331 59.2801 76.6488 67.9644 64.5662 67.9644H0ZM16.3618 11.8308C21.0186 4.02752 27.5634 0 38.2615 0H80.2987V11.8308H16.3618Z" fill="black"/>
<path d="M153.412 0C173.927 0 188.023 14.0963 188.023 32.8495V35.115C188.023 53.8681 173.927 67.9644 153.412 67.9644H130.505C110.116 67.9644 95.8936 53.8681 95.8936 35.115V32.8495C95.8936 14.0963 110.116 0 130.505 0H153.412ZM110.997 35.2408C110.997 47.3234 119.052 55.3784 131.26 55.3784H152.656C164.991 55.3784 172.92 47.3234 172.92 35.2408V32.7236C172.92 20.641 164.991 12.586 152.656 12.586H131.26C119.052 12.586 110.997 20.641 110.997 32.7236V35.2408Z" fill="black"/>
<path d="M237.614 69.9782C223.392 69.9782 215.337 63.0559 210.932 49.9664L193.941 0H209.421L224.776 45.5613C227.797 54.3715 233.712 57.2663 243.404 57.2663H256.996C254.857 63.8111 251.584 69.9782 237.614 69.9782ZM256.996 57.2663L276.253 0H291.734L276.882 43.0441C273.107 54.1198 266.939 57.2663 256.996 57.2663Z" fill="black"/>
<path d="M319.287 67.9644C306.827 67.9644 298.143 59.2801 298.143 47.3234C298.143 35.3667 306.827 26.6823 319.287 26.6823H344.459C356.416 26.6823 364.219 30.7099 371.897 38.2615H322.182C316.896 38.2615 313.12 41.7855 313.12 46.8199C313.12 51.8543 316.896 55.3784 322.182 55.3784H371.897V38.2615C381.085 44.932 387 54.1198 387 65.3214V67.9644H319.287ZM371.897 24.7944C371.897 17.998 367.24 13.3412 360.444 13.3412H302.674V0H363.212C377.686 0 387 9.18779 387 23.5358V38.2615H371.897V24.7944Z" fill="black"/>
</svg>
