<svg width="1545" height="173" viewBox="0 0 1545 173" fill="none" xmlns="http://www.w3.org/2000/svg">
<path d="M0.460938 168.72V146.16H119.501C128.621 146.16 135.341 139.44 135.341 130.32C135.341 121.44 128.621 114.72 119.501 114.72H39.1009C16.7809 114.72 2.86094 102.96 2.86094 88.3202C2.86094 72.9602 17.9809 65.2802 31.6609 61.6802C29.2609 65.7602 28.3009 70.3202 28.3009 74.1602C28.3009 84.0002 34.3009 90.4802 46.0609 90.4802H123.581C146.621 90.4802 163.181 107.04 163.181 129.6C163.181 152.16 146.621 168.72 123.581 168.72H0.460938ZM31.6609 61.6802C40.5409 46.8002 53.0209 39.1202 73.4209 39.1202H153.581V61.6802H31.6609Z" fill="black"/>
<path d="M290.598 39.1202C329.718 39.1202 356.598 66.0002 356.598 101.76V106.08C356.598 141.84 329.718 168.72 290.598 168.72H246.918C208.038 168.72 180.918 141.84 180.918 106.08V101.76C180.918 66.0002 208.038 39.1202 246.918 39.1202H290.598ZM209.718 106.32C209.718 129.36 225.078 144.72 248.358 144.72H289.158C312.678 144.72 327.798 129.36 327.798 106.32V101.52C327.798 78.4802 312.678 63.1202 289.158 63.1202H248.358C225.078 63.1202 209.718 78.4802 209.718 101.52V106.32Z" fill="black"/>
<path d="M448.762 172.56C421.642 172.56 406.282 159.36 397.882 134.4L365.482 39.1202H395.002L424.282 126C430.042 142.8 441.322 148.32 459.802 148.32H485.722C481.642 160.8 475.402 172.56 448.762 172.56ZM485.722 148.32L522.442 39.1202H551.962L523.642 121.2C516.442 142.32 504.682 148.32 485.722 148.32Z" fill="black"/>
<path d="M602.103 168.72C578.343 168.72 561.783 152.16 561.783 129.36C561.783 106.56 578.343 90.0002 602.103 90.0002H650.103C672.903 90.0002 687.783 97.6802 702.423 112.08H607.623C597.543 112.08 590.343 118.8 590.343 128.4C590.343 138 597.543 144.72 607.623 144.72H702.423V112.08C719.943 124.8 731.223 142.32 731.223 163.68V168.72H602.103ZM702.423 86.4002C702.423 73.4402 693.543 64.5602 680.583 64.5602H570.423V39.1202H685.863C713.463 39.1202 731.223 56.6402 731.223 84.0002V112.08H702.423V86.4002Z" fill="black"/>
<path d="M827.747 172.56C800.627 172.56 785.267 159.36 776.867 134.4L744.467 39.1202H773.987L803.267 126C809.027 142.8 820.307 148.32 838.787 148.32H864.707C860.627 160.8 854.387 172.56 827.747 172.56ZM864.707 148.32L901.427 39.1202H930.947L902.627 121.2C895.427 142.32 883.667 148.32 864.707 148.32Z" fill="#84F29B"/>
<path d="M981.088 168.72C957.328 168.72 940.768 152.16 940.768 129.36C940.768 106.56 957.328 90.0002 981.088 90.0002H1029.09C1051.89 90.0002 1066.77 97.6802 1081.41 112.08H986.608C976.528 112.08 969.328 118.8 969.328 128.4C969.328 138 976.528 144.72 986.608 144.72H1081.41V112.08C1098.93 124.8 1110.21 142.32 1110.21 163.68V168.72H981.088ZM1081.41 86.4002C1081.41 73.4402 1072.53 64.5602 1059.57 64.5602H949.408V39.1202H1064.85C1092.45 39.1202 1110.21 56.6402 1110.21 84.0002V112.08H1081.41V86.4002Z" fill="#84F29B"/>
<path d="M1164.41 105.36C1164.41 127.92 1180.01 143.28 1202.57 143.28H1271.69C1258.25 159.36 1240.49 168.72 1217.69 168.72H1196.57C1160.33 168.72 1135.61 143.76 1135.61 107.52V39.1202H1164.41V105.36ZM1300.73 84.2402C1300.73 109.2 1292.57 128.64 1271.69 143.28V39.1202H1300.73V84.2402Z" fill="#84F29B"/>
<path d="M1325.94 0.720215H1354.98V168.72H1325.94V0.720215Z" fill="#84F29B"/>
<path d="M1441.96 143.28C1421.08 128.4 1412.92 110.16 1412.92 85.2002V62.8802H1373.08V39.1202H1412.92V0.720215H1441.96V143.28ZM1441.96 143.28H1544.68V168.72H1495C1472.44 168.72 1455.16 159.36 1441.96 143.28ZM1442.2 62.8802C1454.68 48.4802 1469.56 39.1202 1490.92 39.1202H1543.72V62.8802H1442.2Z" fill="#84F29B"/>
</svg>
